<?xml version="1.0" encoding="UTF-8"?> <svg xmlns="http://www.w3.org/2000/svg" width="390" height="150" viewBox="0 0 390 150" fill="none"> <g clip-path="url(#clip0)"> <circle cx="1.5" cy="1.5" r="1.5" fill="#0075FF"></circle> <circle cx="19.5" cy="1.5" r="1.5" fill="#0075FF"></circle> <circle cx="37.5" cy="1.5" r="1.5" fill="#0075FF"></circle> <circle cx="55.5" cy="1.5" r="1.5" fill="#0075FF"></circle> <circle cx="73.5" cy="1.5" r="1.5" fill="#0075FF"></circle> <circle cx="91.5" cy="1.5" r="1.5" fill="#0075FF"></circle> <circle cx="109.5" cy="1.5" r="1.5" fill="#0075FF"></circle> <circle cx="127.5" cy="1.5" r="1.5" fill="#0075FF"></circle> <circle cx="145.5" cy="1.5" r="1.5" fill="#0075FF"></circle> <circle cx="163.5" cy="1.5" r="1.5" fill="#0075FF"></circle> <circle cx="181.5" cy="1.5" r="1.5" fill="#0075FF"></circle> <circle cx="199.5" cy="1.5" r="1.5" fill="#0075FF"></circle> <circle cx="217.5" cy="1.5" r="1.5" fill="#0075FF"></circle> <circle cx="235.5" cy="1.5" r="1.5" fill="#0075FF"></circle> <circle cx="253.5" cy="1.5" r="1.5" fill="#0075FF"></circle> <circle cx="271.5" cy="1.5" r="1.5" fill="#0075FF"></circle> <circle cx="289.5" cy="1.5" r="1.5" fill="#0075FF"></circle> <circle cx="307.5" cy="1.5" r="1.5" fill="#0075FF"></circle> <circle cx="325.5" cy="1.5" r="1.5" fill="#0075FF"></circle> <circle cx="343.5" cy="1.5" r="1.5" fill="#0075FF"></circle> <circle cx="361.5" cy="1.5" r="1.5" fill="#0075FF"></circle> <circle cx="379.5" cy="1.5" r="1.5" fill="#0075FF"></circle> <circle cx="1.5" cy="19.5" r="1.5" fill="#0075FF"></circle> <circle cx="19.5" cy="19.5" r="1.5" fill="#0075FF"></circle> <circle cx="37.5" cy="19.5" r="1.5" fill="#0075FF"></circle> <circle cx="55.5" cy="19.5" r="1.5" fill="#0075FF"></circle> <circle cx="73.5" cy="19.5" r="1.5" fill="#0075FF"></circle> <circle cx="91.5" cy="19.5" r="1.5" fill="#0075FF"></circle> <circle cx="109.5" cy="19.5" r="1.5" fill="#0075FF"></circle> <circle cx="127.5" cy="19.5" r="1.5" fill="#0075FF"></circle> <circle cx="145.5" cy="19.5" r="1.5" fill="#0075FF"></circle> <circle cx="163.5" cy="19.5" r="1.5" fill="#0075FF"></circle> <circle cx="181.5" cy="19.5" r="1.5" fill="#0075FF"></circle> <circle cx="199.5" cy="19.5" r="1.5" fill="#0075FF"></circle> <circle cx="217.5" cy="19.5" r="1.5" fill="#0075FF"></circle> <circle cx="235.5" cy="19.5" r="1.5" fill="#0075FF"></circle> <circle cx="253.5" cy="19.5" r="1.5" fill="#0075FF"></circle> <circle cx="271.5" cy="19.5" r="1.5" fill="#0075FF"></circle> <circle cx="289.5" cy="19.5" r="1.5" fill="#0075FF"></circle> <circle cx="307.5" cy="19.5" r="1.5" fill="#0075FF"></circle> <circle cx="325.5" cy="19.5" r="1.5" fill="#0075FF"></circle> <circle cx="343.5" cy="19.5" r="1.5" fill="#0075FF"></circle> <circle cx="361.5" cy="19.5" r="1.5" fill="#0075FF"></circle> <circle cx="379.5" cy="19.5" r="1.5" fill="#0075FF"></circle> <circle cx="1.5" cy="37.5" r="1.5" fill="#0075FF"></circle> <circle cx="19.5" cy="37.5" r="1.5" fill="#0075FF"></circle> <circle cx="37.5" cy="37.5" r="1.5" fill="#0075FF"></circle> <circle cx="55.5" cy="37.5" r="1.5" fill="#0075FF"></circle> <circle cx="73.5" cy="37.5" r="1.5" fill="#0075FF"></circle> <circle cx="91.5" cy="37.5" r="1.5" fill="#0075FF"></circle> <circle cx="109.5" cy="37.5" r="1.5" fill="#0075FF"></circle> <circle cx="127.5" cy="37.5" r="1.5" fill="#0075FF"></circle> <circle cx="145.5" cy="37.5" r="1.5" fill="#0075FF"></circle> <circle cx="163.5" cy="37.5" r="1.5" fill="#0075FF"></circle> <circle cx="181.5" cy="37.5" r="1.5" fill="#0075FF"></circle> <circle cx="199.5" cy="37.5" r="1.5" fill="#0075FF"></circle> <circle cx="217.5" cy="37.5" r="1.5" fill="#0075FF"></circle> <circle cx="235.5" cy="37.5" r="1.5" fill="#0075FF"></circle> <circle cx="253.5" cy="37.5" r="1.5" fill="#0075FF"></circle> <circle cx="271.5" cy="37.5" r="1.5" fill="#0075FF"></circle> <circle cx="289.5" cy="37.5" r="1.5" fill="#0075FF"></circle> <circle cx="307.5" cy="37.5" r="1.5" fill="#0075FF"></circle> <circle cx="325.5" cy="37.5" r="1.5" fill="#0075FF"></circle> <circle cx="343.5" cy="37.5" r="1.5" fill="#0075FF"></circle> <circle cx="361.5" cy="37.5" r="1.5" fill="#0075FF"></circle> <circle cx="379.5" cy="37.5" r="1.5" fill="#0075FF"></circle> <circle cx="1.5" cy="55.5" r="1.5" fill="#0075FF"></circle> <circle cx="19.5" cy="55.5" r="1.5" fill="#0075FF"></circle> <circle cx="37.5" cy="55.5" r="1.5" fill="#0075FF"></circle> <circle cx="55.5" cy="55.5" r="1.5" fill="#0075FF"></circle> <circle cx="73.5" cy="55.5" r="1.5" fill="#0075FF"></circle> <circle cx="91.5" cy="55.5" r="1.5" fill="#0075FF"></circle> <circle cx="109.5" cy="55.5" r="1.5" fill="#0075FF"></circle> <circle cx="127.5" cy="55.5" r="1.5" fill="#0075FF"></circle> <circle cx="145.5" cy="55.5" r="1.5" fill="#0075FF"></circle> <circle cx="163.5" cy="55.5" r="1.5" fill="#0075FF"></circle> <circle cx="181.5" cy="55.5" r="1.5" fill="#0075FF"></circle> <circle cx="199.5" cy="55.5" r="1.5" fill="#0075FF"></circle> <circle cx="217.5" cy="55.5" r="1.5" fill="#0075FF"></circle> <circle cx="235.5" cy="55.5" r="1.5" fill="#0075FF"></circle> <circle cx="253.5" cy="55.5" r="1.5" fill="#0075FF"></circle> <circle cx="271.5" cy="55.5" r="1.5" fill="#0075FF"></circle> <circle cx="289.5" cy="55.5" r="1.5" fill="#0075FF"></circle> <circle cx="307.5" cy="55.5" r="1.5" fill="#0075FF"></circle> <circle cx="325.5" cy="55.5" r="1.5" fill="#0075FF"></circle> <circle cx="343.5" cy="55.5" r="1.5" fill="#0075FF"></circle> <circle cx="361.5" cy="55.5" r="1.5" fill="#0075FF"></circle> <circle cx="379.5" cy="55.5" r="1.5" fill="#0075FF"></circle> <circle cx="1.5" cy="73.5" r="1.5" fill="#0075FF"></circle> <circle cx="19.5" cy="73.5" r="1.5" fill="#0075FF"></circle> <circle cx="37.5" cy="73.5" r="1.5" fill="#0075FF"></circle> <circle cx="55.5" cy="73.5" r="1.5" fill="#0075FF"></circle> <circle cx="73.5" cy="73.5" r="1.5" fill="#0075FF"></circle> <circle cx="91.5" cy="73.5" r="1.5" fill="#0075FF"></circle> <circle cx="109.5" cy="73.5" r="1.5" fill="#0075FF"></circle> <circle cx="127.5" cy="73.5" r="1.5" fill="#0075FF"></circle> <circle cx="145.5" cy="73.5" r="1.5" fill="#0075FF"></circle> <circle cx="163.5" cy="73.5" r="1.5" fill="#0075FF"></circle> <circle cx="181.5" cy="73.5" r="1.5" fill="#0075FF"></circle> <circle cx="199.5" cy="73.5" r="1.5" fill="#0075FF"></circle> <circle cx="217.5" cy="73.5" r="1.5" fill="#0075FF"></circle> <circle cx="235.5" cy="73.5" r="1.5" fill="#0075FF"></circle> <circle cx="253.5" cy="73.5" r="1.5" fill="#0075FF"></circle> <circle cx="271.5" cy="73.5" r="1.5" fill="#0075FF"></circle> <circle cx="289.5" cy="73.5" r="1.5" fill="#0075FF"></circle> <circle cx="307.5" cy="73.5" r="1.5" fill="#0075FF"></circle> <circle cx="325.5" cy="73.5" r="1.5" fill="#0075FF"></circle> <circle cx="343.5" cy="73.5" r="1.5" fill="#0075FF"></circle> <circle cx="361.5" cy="73.5" r="1.5" fill="#0075FF"></circle> <circle cx="379.5" cy="73.5" r="1.5" fill="#0075FF"></circle> <circle cx="1.5" cy="91.5" r="1.5" fill="#0075FF"></circle> <circle cx="19.5" cy="91.5" r="1.5" fill="#0075FF"></circle> <circle cx="37.5" cy="91.5" r="1.5" fill="#0075FF"></circle> <circle cx="55.5" cy="91.5" r="1.5" fill="#0075FF"></circle> <circle cx="73.5" cy="91.5" r="1.5" fill="#0075FF"></circle> <circle cx="91.5" cy="91.5" r="1.5" fill="#0075FF"></circle> <circle cx="109.5" cy="91.5" r="1.5" fill="#0075FF"></circle> <circle cx="127.5" cy="91.5" r="1.5" fill="#0075FF"></circle> <circle cx="145.5" cy="91.5" r="1.5" fill="#0075FF"></circle> <circle cx="163.5" cy="91.5" r="1.5" fill="#0075FF"></circle> <circle cx="181.5" cy="91.5" r="1.5" fill="#0075FF"></circle> <circle cx="199.5" cy="91.5" r="1.5" fill="#0075FF"></circle> <circle cx="217.5" cy="91.5" r="1.5" fill="#0075FF"></circle> <circle cx="235.5" cy="91.5" r="1.5" fill="#0075FF"></circle> <circle cx="253.5" cy="91.5" r="1.5" fill="#0075FF"></circle> <circle cx="271.5" cy="91.5" r="1.5" fill="#0075FF"></circle> <circle cx="289.5" cy="91.5" r="1.5" fill="#0075FF"></circle> <circle cx="307.5" cy="91.5" r="1.5" fill="#0075FF"></circle> <circle cx="325.5" cy="91.5" r="1.5" fill="#0075FF"></circle> <circle cx="343.5" cy="91.5" r="1.5" fill="#0075FF"></circle> <circle cx="361.5" cy="91.5" r="1.5" fill="#0075FF"></circle> <circle cx="379.5" cy="91.5" r="1.5" fill="#0075FF"></circle> <circle cx="1.5" cy="109.5" r="1.5" fill="#0075FF"></circle> <circle cx="19.5" cy="109.5" r="1.5" fill="#0075FF"></circle> <circle cx="37.5" cy="109.5" r="1.5" fill="#0075FF"></circle> <circle cx="55.5" cy="109.5" r="1.5" fill="#0075FF"></circle> <circle cx="73.5" cy="109.5" r="1.5" fill="#0075FF"></circle> <circle cx="91.5" cy="109.5" r="1.5" fill="#0075FF"></circle> <circle cx="109.5" cy="109.5" r="1.5" fill="#0075FF"></circle> <circle cx="127.5" cy="109.5" r="1.5" fill="#0075FF"></circle> <circle cx="145.5" cy="109.5" r="1.5" fill="#0075FF"></circle> <circle cx="163.5" cy="109.5" r="1.5" fill="#0075FF"></circle> <circle cx="181.5" cy="109.5" r="1.5" fill="#0075FF"></circle> <circle cx="199.5" cy="109.5" r="1.5" fill="#0075FF"></circle> <circle cx="217.5" cy="109.5" r="1.5" fill="#0075FF"></circle> <circle cx="235.5" cy="109.5" r="1.5" fill="#0075FF"></circle> <circle cx="253.5" cy="109.5" r="1.5" fill="#0075FF"></circle> <circle cx="271.5" cy="109.5" r="1.5" fill="#0075FF"></circle> <circle cx="289.5" cy="109.5" r="1.5" fill="#0075FF"></circle> <circle cx="307.5" cy="109.5" r="1.5" fill="#0075FF"></circle> <circle cx="325.5" cy="109.5" r="1.5" fill="#0075FF"></circle> <circle cx="343.5" cy="109.5" r="1.5" fill="#0075FF"></circle> <circle cx="361.5" cy="109.5" r="1.5" fill="#0075FF"></circle> <circle cx="379.5" cy="109.5" r="1.5" fill="#0075FF"></circle> <circle cx="1.5" cy="127.5" r="1.5" fill="#0075FF"></circle> <circle cx="19.5" cy="127.5" r="1.5" fill="#0075FF"></circle> <circle cx="37.5" cy="127.5" r="1.5" fill="#0075FF"></circle> <circle cx="55.5" cy="127.5" r="1.5" fill="#0075FF"></circle> <circle cx="73.5" cy="127.5" r="1.5" fill="#0075FF"></circle> <circle cx="91.5" cy="127.5" r="1.5" fill="#0075FF"></circle> <circle cx="109.5" cy="127.5" r="1.5" fill="#0075FF"></circle> <circle cx="127.5" cy="127.5" r="1.5" fill="#0075FF"></circle> <circle cx="145.5" cy="127.5" r="1.5" fill="#0075FF"></circle> <circle cx="163.5" cy="127.5" r="1.5" fill="#0075FF"></circle> <circle cx="181.5" cy="127.5" r="1.5" fill="#0075FF"></circle> <circle cx="199.5" cy="127.5" r="1.5" fill="#0075FF"></circle> <circle cx="217.5" cy="127.5" r="1.5" fill="#0075FF"></circle> <circle cx="235.5" cy="127.5" r="1.5" fill="#0075FF"></circle> <circle cx="253.5" cy="127.5" r="1.5" fill="#0075FF"></circle> <circle cx="271.5" cy="127.5" r="1.5" fill="#0075FF"></circle> <circle cx="289.5" cy="127.5" r="1.5" fill="#0075FF"></circle> <circle cx="307.5" cy="127.5" r="1.5" fill="#0075FF"></circle> <circle cx="325.5" cy="127.5" r="1.5" fill="#0075FF"></circle> <circle cx="343.5" cy="127.5" r="1.5" fill="#0075FF"></circle> <circle cx="361.5" cy="127.5" r="1.5" fill="#0075FF"></circle> <circle cx="379.5" cy="127.5" r="1.5" fill="#0075FF"></circle> <circle cx="1.5" cy="145.5" r="1.5" fill="#0075FF"></circle> <circle cx="19.5" cy="145.5" r="1.5" fill="#0075FF"></circle> <circle cx="37.5" cy="145.5" r="1.5" fill="#0075FF"></circle> <circle cx="55.5" cy="145.5" r="1.5" fill="#0075FF"></circle> <circle cx="73.5" cy="145.5" r="1.5" fill="#0075FF"></circle> <circle cx="91.5" cy="145.5" r="1.5" fill="#0075FF"></circle> <circle cx="109.5" cy="145.5" r="1.5" fill="#0075FF"></circle> <circle cx="127.5" cy="145.5" r="1.5" fill="#0075FF"></circle> <circle cx="145.5" cy="145.5" r="1.5" fill="#0075FF"></circle> <circle cx="163.5" cy="145.5" r="1.5" fill="#0075FF"></circle> <circle cx="181.5" cy="145.5" r="1.5" fill="#0075FF"></circle> <circle cx="199.5" cy="145.5" r="1.5" fill="#0075FF"></circle> <circle cx="217.5" cy="145.5" r="1.5" fill="#0075FF"></circle> <circle cx="235.5" cy="145.5" r="1.5" fill="#0075FF"></circle> <circle cx="253.5" cy="145.5" r="1.5" fill="#0075FF"></circle> <circle cx="271.5" cy="145.5" r="1.5" fill="#0075FF"></circle> <circle cx="289.5" cy="145.5" r="1.5" fill="#0075FF"></circle> <circle cx="307.5" cy="145.5" r="1.5" fill="#0075FF"></circle> <circle cx="325.5" cy="145.5" r="1.5" fill="#0075FF"></circle> <circle cx="343.5" cy="145.5" r="1.5" fill="#0075FF"></circle> <circle cx="361.5" cy="145.5" r="1.5" fill="#0075FF"></circle> <circle cx="379.5" cy="145.5" r="1.5" fill="#0075FF"></circle> </g> <defs> <clipPath id="clip0"> <rect width="390" height="150" fill="white"></rect> </clipPath> </defs> </svg> 